<?xml version="1.0" encoding="utf-8"?>
<!-- Generator: Adobe Illustrator 27.5.0, SVG Export Plug-In . SVG Version: 6.00 Build 0)  -->
<svg version="1.1" id="Capa_1" xmlns="http://www.w3.org/2000/svg" xmlns:xlink="http://www.w3.org/1999/xlink" x="0px" y="0px"
	 viewBox="0 0 275.9 264.8" style="enable-background:new 0 0 275.9 264.8;" xml:space="preserve">
<style type="text/css">
	.st0{fill:#FFFFFF;}
	.st1{fill:none;stroke:#000000;}
	.st2{filter:url(#n);}
	.st3{fill:#D3D7CF;}
	.st4{fill:url(#SVGID_1_);}
	.st5{fill:url(#SVGID_00000171707348456503281060000012458189720504283530_);}
	.st6{fill:#2E3436;}
	.st7{fill-rule:evenodd;clip-rule:evenodd;fill:#888A85;}
	.st8{fill-rule:evenodd;clip-rule:evenodd;fill:url(#SVGID_00000057118478955150730040000001077931196776907908_);}
	.st9{fill-rule:evenodd;clip-rule:evenodd;fill:#C4C7C1;}
	.st10{fill-rule:evenodd;clip-rule:evenodd;fill:url(#SVGID_00000147904689375812740540000005515487508604813734_);}
	.st11{fill-rule:evenodd;clip-rule:evenodd;fill:url(#SVGID_00000074401958398329273160000018352442985550489274_);}
	.st12{fill-rule:evenodd;clip-rule:evenodd;fill:url(#SVGID_00000112594190823029243240000006094056439199991453_);}
	.st13{fill-rule:evenodd;clip-rule:evenodd;fill:url(#SVGID_00000144303643467604299770000013756631868680174494_);}
	.st14{fill-rule:evenodd;clip-rule:evenodd;fill:url(#SVGID_00000123441487783514621180000014117592247505297320_);}
	.st15{fill-rule:evenodd;clip-rule:evenodd;fill:url(#SVGID_00000051361488829263843130000014214810452492689830_);}
	.st16{fill-rule:evenodd;clip-rule:evenodd;fill:url(#SVGID_00000025424672575553902280000013671937135786123428_);}
	.st17{fill-rule:evenodd;clip-rule:evenodd;fill:url(#SVGID_00000018210831208626074560000001794079882288995744_);}
	.st18{fill-rule:evenodd;clip-rule:evenodd;fill:url(#SVGID_00000102516535070182126710000005961740804663551873_);}
	.st19{fill-rule:evenodd;clip-rule:evenodd;fill:url(#SVGID_00000182493287723907467150000013738125758543550357_);}
	.st20{fill-rule:evenodd;clip-rule:evenodd;fill:url(#SVGID_00000104681990144609413250000017021524224935510677_);}
	.st21{fill-rule:evenodd;clip-rule:evenodd;fill:url(#SVGID_00000165206653352096496670000001850823081404217249_);}
	.st22{fill-rule:evenodd;clip-rule:evenodd;fill:url(#SVGID_00000031914110895605587890000016220551503633709228_);}
	.st23{fill-rule:evenodd;clip-rule:evenodd;fill:url(#SVGID_00000016048516045682180670000000907911515575176123_);}
	.st24{fill-rule:evenodd;clip-rule:evenodd;fill:url(#SVGID_00000106840691885424353870000007503645922651241345_);}
	.st25{fill-rule:evenodd;clip-rule:evenodd;fill:url(#SVGID_00000178886903331403482070000006488932232265764227_);}
	.st26{fill-rule:evenodd;clip-rule:evenodd;fill:url(#SVGID_00000089546455322742706650000004405614609105324948_);}
	.st27{fill-rule:evenodd;clip-rule:evenodd;fill:url(#SVGID_00000104679412567897514420000016406031907216425140_);}
	.st28{fill-rule:evenodd;clip-rule:evenodd;fill:url(#SVGID_00000105415827481922230640000006362765736366868100_);}
	.st29{fill-rule:evenodd;clip-rule:evenodd;fill:url(#SVGID_00000165218666871483788360000007553943191192141201_);}
	.st30{fill-rule:evenodd;clip-rule:evenodd;fill:url(#SVGID_00000039818688183599323520000007957455362327198882_);}
	.st31{fill-rule:evenodd;clip-rule:evenodd;fill:url(#SVGID_00000173138000071958676760000010942842413515158702_);}
	.st32{fill-rule:evenodd;clip-rule:evenodd;fill:url(#SVGID_00000014633915228944420120000003593305691188342936_);}
	.st33{fill-rule:evenodd;clip-rule:evenodd;fill:url(#SVGID_00000029743458789397103620000018352105043536810130_);}
	.st34{fill-rule:evenodd;clip-rule:evenodd;fill:url(#SVGID_00000083781884402238737120000006061963739753218713_);}
	.st35{fill-rule:evenodd;clip-rule:evenodd;fill:url(#SVGID_00000077295070000149924990000000335345908708193936_);}
	.st36{fill-rule:evenodd;clip-rule:evenodd;fill:url(#SVGID_00000062186561086739384270000006081438722249613440_);}
	.st37{fill-rule:evenodd;clip-rule:evenodd;fill:url(#SVGID_00000016040271981841226350000000585062853830824607_);}
	.st38{fill-rule:evenodd;clip-rule:evenodd;fill:url(#SVGID_00000075159537103105126680000010925834911377071255_);}
	.st39{fill-rule:evenodd;clip-rule:evenodd;fill:url(#SVGID_00000092424953364401322750000014178039274432109705_);}
	.st40{fill-rule:evenodd;clip-rule:evenodd;fill:url(#SVGID_00000106138018380406954580000006533174424238595975_);}
	.st41{fill-rule:evenodd;clip-rule:evenodd;fill:url(#SVGID_00000085952501342783626640000002620215214756915075_);}
	.st42{fill-rule:evenodd;clip-rule:evenodd;fill:url(#SVGID_00000088841068219719005090000001581265675474471825_);}
	.st43{opacity:0.4531;filter:url(#r);enable-background:new    ;}
	.st44{fill-rule:evenodd;clip-rule:evenodd;fill:#232325;}
	.st45{fill-rule:evenodd;clip-rule:evenodd;fill:url(#SVGID_00000016054139652541462530000012457563183020727219_);}
	.st46{fill-rule:evenodd;clip-rule:evenodd;fill:url(#SVGID_00000086692612265481044480000007594992157136388540_);}
	.st47{fill-rule:evenodd;clip-rule:evenodd;fill:#8C8E89;}
	.st48{fill:#EEEEEC;}
	.st49{fill-rule:evenodd;clip-rule:evenodd;fill:url(#SVGID_00000018927145898838204530000010293533584449860265_);}
	.st50{fill-rule:evenodd;clip-rule:evenodd;fill:url(#SVGID_00000161611413414777091710000009407004974975375002_);}
	.st51{filter:url(#q);}
	.st52{fill:#929292;}
	.st53{fill:#BCBFB8;}
	.st54{fill:url(#SVGID_00000029736880042985610100000007908299838809432710_);}
	.st55{opacity:0.6;fill:#2E3436;enable-background:new    ;}
	.st56{fill:#C4C7C1;}
	.st57{filter:url(#p);}
	.st58{fill:url(#SVGID_00000134970357745351346440000009429679505611309484_);}
	.st59{opacity:0.3918;filter:url(#o);enable-background:new    ;}
	.st60{fill:#8D8F8A;}
	.st61{fill:url(#SVGID_00000000934241002213303440000006631525681217997994_);}
	.st62{opacity:0.6;fill:url(#SVGID_00000178902903811925057240000014005824711404068770_);enable-background:new    ;}
	.st63{opacity:0.6;filter:url(#m);enable-background:new    ;}
	.st64{opacity:0.3837;fill:url(#SVGID_00000104687116648921791250000007319963144686862250_);enable-background:new    ;}
</style>
<filter  height="1.0713" id="r" width="1.2139" x="-.10694" y="-.03565">
	<feGaussianBlur  stdDeviation=".89116"></feGaussianBlur>
</filter>
<filter  id="q">
	<feGaussianBlur  stdDeviation=".39"></feGaussianBlur>
</filter>
<filter  id="p">
	<feGaussianBlur  stdDeviation=".49561"></feGaussianBlur>
</filter>
<filter  height="1.0689" id="o" width="1.2302" x="-.11513" y="-.03443">
	<feGaussianBlur  stdDeviation=".91436"></feGaussianBlur>
</filter>
<filter  id="n">
	<feGaussianBlur  stdDeviation="2.77423"></feGaussianBlur>
</filter>
<filter  id="m">
	<feGaussianBlur  stdDeviation=".73856"></feGaussianBlur>
</filter>
<path class="st0" d="M223.2,215.3l-82.5-66.1l54.1,90.8l-59.4-87.5l25,102.8l-31-101.1L123,259.9l0.2-105.7l-37.3,99l31.4-101
	l-64.8,83.6l59.7-87.2l-86.5,60.8l82.8-65.7L7.9,176.1l98.5-38.4L0.6,139.1l105.4-7.7L4.6,101.7l103,23.7L19.4,67.1l91.4,53
	L43.8,38.3l71.8,77.6l-40-97.9l45.7,95.3L111.8,8.1l15.5,104.6L149.5,9.3l-16,104.5l51.6-92.3l-46.1,95.2l76.5-73L143.5,121
	l94.6-47.2l-91.7,52.7l104.3-17.2l-103.1,23.3l104.8,14.3l-105.4-8.1l95.9,44.6l-98.3-38.8L223.2,215.3z"/>
<path class="st1" d="M132.1,58.6L209,74.7"/>
<g class="st2">
	<polygon class="st3" points="82,190.7 30.3,223.4 123.4,257.6 214.7,223 174.7,216.3 	"/>
</g>
<linearGradient id="SVGID_1_" gradientUnits="userSpaceOnUse" x1="407.6569" y1="-457.4524" x2="400.5069" y2="-546.0224" gradientTransform="matrix(1 0 0 -1 -234.4 -391.4807)">
	<stop  offset="0" style="stop-color:#BABDB6"/>
	<stop  offset="1" style="stop-color:#EEEEEC"/>
</linearGradient>
<path class="st4" d="M122,30.7v227.9l92.7-35.7V56.3L122,30.7z"/>
<linearGradient id="SVGID_00000177452651159505333100000002213778888976441494_" gradientUnits="userSpaceOnUse" x1="314.8003" y1="-636.2141" x2="344.8003" y2="-476.924" gradientTransform="matrix(1 0 0 -1 -234.4 -391.4807)">
	<stop  offset="0" style="stop-color:#888A85"/>
	<stop  offset="1" style="stop-color:#D8D9D5"/>
</linearGradient>
<path style="fill:url(#SVGID_00000177452651159505333100000002213778888976441494_);" d="M70.3,63.4L122,30.7v227.9l-51.7-38.1
	L70.3,63.4z"/>
<path class="st6" d="M132.6,236.9c22.6-5.6,50.6-18,74.5-26.8l0.3-0.1V68.2l-0.4-0.1l-74.6-19C132.1,110.4,132.8,174.5,132.6,236.9
	L132.6,236.9z M132.9,50.1L206.5,69v140.4l-73.6,26.9V50.1z"/>
<path class="st7" d="M161.1,64.4c0,1.9,0.6,3.5,1.4,3.5c0.8,0,1.4-1.6,1.4-3.5s-0.6-3.5-1.4-3.5C161.7,60.9,161.1,62.5,161.1,64.4z"
	/>
<linearGradient id="SVGID_00000057135153853343797410000000733000014258569916_" gradientUnits="userSpaceOnUse" x1="397.013" y1="-502.754" x2="400.173" y2="-495.684" gradientTransform="matrix(1.213 0 0 -1.213 -320.56 -541.6403)">
	<stop  offset="0" style="stop-color:#888A85"/>
	<stop  offset="1" style="stop-color:#D3D7CF"/>
</linearGradient>
<path style="fill-rule:evenodd;clip-rule:evenodd;fill:url(#SVGID_00000057135153853343797410000000733000014258569916_);" d="
	M164.1,64.1c0,2-0.5,3.7-1.2,3.7c-0.7,0-1.2-1.6-1.2-3.7c0-2,0.5-3.7,1.2-3.7C163.5,60.4,164.1,62.1,164.1,64.1z"/>
<path class="st9" d="M163.9,63.6c0,1.1-0.3,2.1-0.7,2.1s-0.7-0.9-0.7-2.1c0-1.1,0.3-2.1,0.7-2.1S163.9,62.5,163.9,63.6z"/>
<path class="st7" d="M153.7,63.1c0,2,0.6,3.6,1.4,3.6c0.8,0,1.4-1.6,1.4-3.6s-0.6-3.6-1.4-3.6C154.3,59.5,153.7,61.1,153.7,63.1z"/>
<linearGradient id="SVGID_00000042734101309818277970000001660585602781586356_" gradientUnits="userSpaceOnUse" x1="398.576" y1="-504.2183" x2="401.7359" y2="-497.1483" gradientTransform="matrix(1.2377 0 0 -1.2377 -339.7545 -557.1715)">
	<stop  offset="0" style="stop-color:#888A85"/>
	<stop  offset="1" style="stop-color:#D3D7CF"/>
</linearGradient>
<path style="fill-rule:evenodd;clip-rule:evenodd;fill:url(#SVGID_00000042734101309818277970000001660585602781586356_);" d="
	M156.7,62.7c0,2.1-0.6,3.8-1.3,3.8c-0.7,0-1.3-1.7-1.3-3.8s0.6-3.8,1.3-3.8C156.1,59,156.7,60.7,156.7,62.7z"/>
<path class="st9" d="M156.5,62.3c0,1.2-0.3,2.1-0.7,2.1s-0.7-0.9-0.7-2.1s0.3-2.1,0.7-2.1S156.5,61.1,156.5,62.3z"/>
<path class="st7" d="M146,61.6c0,2,0.6,3.6,1.4,3.6c0.8,0,1.4-1.6,1.4-3.6s-0.6-3.6-1.4-3.6C146.6,57.9,146,59.6,146,61.6z"/>
<linearGradient id="SVGID_00000167376269465311337810000002981174127514670776_" gradientUnits="userSpaceOnUse" x1="400.1135" y1="-505.6587" x2="403.2735" y2="-498.5887" gradientTransform="matrix(1.263 0 0 -1.263 -359.425 -573.1283)">
	<stop  offset="0" style="stop-color:#888A85"/>
	<stop  offset="1" style="stop-color:#D3D7CF"/>
</linearGradient>
<path style="fill-rule:evenodd;clip-rule:evenodd;fill:url(#SVGID_00000167376269465311337810000002981174127514670776_);" d="
	M149.1,61.3c0,2.1-0.6,3.8-1.3,3.8c-0.7,0-1.3-1.7-1.3-3.8c0-2.1,0.6-3.8,1.3-3.8C148.5,57.4,149.1,59.1,149.1,61.3z"/>
<path class="st9" d="M148.9,60.8c0,1.2-0.3,2.2-0.7,2.2c-0.4,0-0.7-1-0.7-2.2c0-1.2,0.3-2.2,0.7-2.2
	C148.6,58.6,148.9,59.6,148.9,60.8z"/>
<path class="st7" d="M168.3,66.3c0,1.9,0.6,3.4,1.3,3.4s1.3-1.5,1.3-3.4s-0.6-3.4-1.3-3.4S168.3,64.4,168.3,66.3z"/>
<linearGradient id="SVGID_00000021082329485888457760000015633584168604562623_" gradientUnits="userSpaceOnUse" x1="395.412" y1="-501.2541" x2="398.572" y2="-494.1841" gradientTransform="matrix(1.1887 0 0 -1.1887 -301.8085 -525.8494)">
	<stop  offset="0" style="stop-color:#888A85"/>
	<stop  offset="1" style="stop-color:#D3D7CF"/>
</linearGradient>
<path style="fill-rule:evenodd;clip-rule:evenodd;fill:url(#SVGID_00000021082329485888457760000015633584168604562623_);" d="
	M171.2,66c0,2-0.5,3.6-1.2,3.6c-0.7,0-1.2-1.6-1.2-3.6c0-2,0.5-3.6,1.2-3.6C170.7,62.4,171.2,64,171.2,66z"/>
<path class="st9" d="M171.1,65.5c0,1.1-0.3,2-0.7,2c-0.4,0-0.7-0.9-0.7-2s0.3-2,0.7-2C170.8,63.5,171.1,64.4,171.1,65.5z"/>
<path class="st7" d="M175.3,67.7c0,1.9,0.6,3.4,1.3,3.4c0.7,0,1.3-1.5,1.3-3.4s-0.6-3.4-1.3-3.4C175.9,64.3,175.3,65.8,175.3,67.7z"
	/>
<linearGradient id="SVGID_00000006666078822854513090000007011433660938529459_" gradientUnits="userSpaceOnUse" x1="393.7792" y1="-499.7244" x2="396.9391" y2="-492.6544" gradientTransform="matrix(1.1649 0 0 -1.1649 -283.5005 -510.8716)">
	<stop  offset="0" style="stop-color:#888A85"/>
	<stop  offset="1" style="stop-color:#D3D7CF"/>
</linearGradient>
<path style="fill-rule:evenodd;clip-rule:evenodd;fill:url(#SVGID_00000006666078822854513090000007011433660938529459_);" d="
	M178.1,67.3c0,1.9-0.5,3.5-1.2,3.5c-0.6,0-1.2-1.6-1.2-3.5c0-1.9,0.5-3.5,1.2-3.5C177.6,63.8,178.1,65.4,178.1,67.3z"/>
<path class="st9" d="M178,66.9c0,1.1-0.3,2-0.7,2s-0.7-0.9-0.7-2s0.3-2,0.7-2S178,65.8,178,66.9z"/>
<path class="st7" d="M182.1,69.6c0,1.8,0.6,3.3,1.3,3.3s1.3-1.5,1.3-3.3c0-1.8-0.6-3.3-1.3-3.3S182.1,67.8,182.1,69.6z"/>
<linearGradient id="SVGID_00000172414714673731685280000016628186093681544115_" gradientUnits="userSpaceOnUse" x1="392.1147" y1="-498.1651" x2="395.2747" y2="-491.0951" gradientTransform="matrix(1.1416 0 0 -1.1416 -265.627 -495.5667)">
	<stop  offset="0" style="stop-color:#888A85"/>
	<stop  offset="1" style="stop-color:#D3D7CF"/>
</linearGradient>
<path style="fill-rule:evenodd;clip-rule:evenodd;fill:url(#SVGID_00000172414714673731685280000016628186093681544115_);" d="
	M184.9,69.3c0,1.9-0.5,3.5-1.2,3.5c-0.6,0-1.2-1.5-1.2-3.5c0-1.9,0.5-3.5,1.2-3.5C184.4,65.8,184.9,67.4,184.9,69.3z"/>
<path class="st9" d="M184.8,68.9c0,1.1-0.3,1.9-0.6,1.9s-0.6-0.9-0.6-1.9s0.3-1.9,0.6-1.9S184.8,67.8,184.8,68.9z"/>
<path class="st7" d="M188.7,71.1c0,1.8,0.6,3.2,1.3,3.2s1.3-1.4,1.3-3.2s-0.6-3.2-1.3-3.2S188.7,69.3,188.7,71.1z"/>
<linearGradient id="SVGID_00000116231059656233136110000017684926147840331668_" gradientUnits="userSpaceOnUse" x1="390.4188" y1="-496.5763" x2="393.5788" y2="-489.5063" gradientTransform="matrix(1.1188 0 0 -1.1188 -248.178 -481.0448)">
	<stop  offset="0" style="stop-color:#888A85"/>
	<stop  offset="1" style="stop-color:#D3D7CF"/>
</linearGradient>
<path style="fill-rule:evenodd;clip-rule:evenodd;fill:url(#SVGID_00000116231059656233136110000017684926147840331668_);" d="
	M191.4,70.7c0,1.9-0.5,3.4-1.1,3.4s-1.1-1.5-1.1-3.4s0.5-3.4,1.1-3.4S191.4,68.9,191.4,70.7z"/>
<path class="st9" d="M191.3,70.3c0,1.1-0.3,1.9-0.6,1.9c-0.4,0-0.6-0.9-0.6-1.9c0-1.1,0.3-1.9,0.6-1.9
	C191,68.4,191.3,69.3,191.3,70.3z"/>
<path class="st7" d="M195.1,72.5c0,1.7,0.6,3.2,1.2,3.2s1.2-1.4,1.2-3.2s-0.6-3.2-1.2-3.2S195.1,70.7,195.1,72.5z"/>
<linearGradient id="SVGID_00000141439012155238553000000017261355908391666077_" gradientUnits="userSpaceOnUse" x1="388.684" y1="-494.9511" x2="391.844" y2="-487.8811" gradientTransform="matrix(1.0964 0 0 -1.0964 -231.136 -466.8433)">
	<stop  offset="0" style="stop-color:#888A85"/>
	<stop  offset="1" style="stop-color:#D3D7CF"/>
</linearGradient>
<path style="fill-rule:evenodd;clip-rule:evenodd;fill:url(#SVGID_00000141439012155238553000000017261355908391666077_);" d="
	M197.8,72.1c0,1.8-0.5,3.3-1.1,3.3s-1.1-1.5-1.1-3.3c0-1.8,0.5-3.3,1.1-3.3S197.8,70.3,197.8,72.1z"/>
<path class="st9" d="M197.6,71.7c0,1-0.3,1.9-0.6,1.9c-0.3,0-0.6-0.8-0.6-1.9s0.3-1.9,0.6-1.9C197.4,69.8,197.6,70.7,197.6,71.7z"/>
<path class="st7" d="M201.3,73.5c0,1.7,0.5,3.1,1.2,3.1s1.2-1.4,1.2-3.1c0-1.7-0.5-3.1-1.2-3.1S201.3,71.8,201.3,73.5z"/>
<linearGradient id="SVGID_00000178902646338093291300000008037347211044349620_" gradientUnits="userSpaceOnUse" x1="386.918" y1="-493.2966" x2="390.078" y2="-486.2266" gradientTransform="matrix(1.0745 0 0 -1.0745 -214.5015 -453.2247)">
	<stop  offset="0" style="stop-color:#888A85"/>
	<stop  offset="1" style="stop-color:#D3D7CF"/>
</linearGradient>
<path style="fill-rule:evenodd;clip-rule:evenodd;fill:url(#SVGID_00000178902646338093291300000008037347211044349620_);" d="
	M203.9,73.2c0,1.8-0.5,3.3-1.1,3.3s-1.1-1.5-1.1-3.3c0-1.8,0.5-3.3,1.1-3.3S203.9,71.4,203.9,73.2z"/>
<path class="st9" d="M203.8,72.8c0,1-0.3,1.8-0.6,1.8c-0.3,0-0.6-0.8-0.6-1.8s0.3-1.8,0.6-1.8C203.5,70.9,203.8,71.8,203.8,72.8z"/>
<path class="st7" d="M138.1,60.2c0,2.1,0.6,3.7,1.4,3.7s1.4-1.7,1.4-3.7c0-2.1-0.6-3.7-1.4-3.7S138.1,58.2,138.1,60.2z"/>
<linearGradient id="SVGID_00000159430183844920461370000003425792822012136358_" gradientUnits="userSpaceOnUse" x1="401.6135" y1="-507.064" x2="404.7735" y2="-499.994" gradientTransform="matrix(1.2887 0 0 -1.2887 -379.5465 -589.3255)">
	<stop  offset="0" style="stop-color:#888A85"/>
	<stop  offset="1" style="stop-color:#D3D7CF"/>
</linearGradient>
<path style="fill-rule:evenodd;clip-rule:evenodd;fill:url(#SVGID_00000159430183844920461370000003425792822012136358_);" d="
	M141.3,59.8c0,2.2-0.6,3.9-1.3,3.9s-1.3-1.7-1.3-3.9c0-2.2,0.6-3.9,1.3-3.9S141.3,57.6,141.3,59.8z"/>
<path class="st9" d="M141.1,59.3c0,1.2-0.3,2.2-0.7,2.2s-0.7-1-0.7-2.2c0-1.2,0.3-2.2,0.7-2.2S141.1,58.1,141.1,59.3z"/>
<path class="st7" d="M161.1,219.6c0,1.9,0.6,3.2,1.4,2.8c0.8-0.4,1.4-2.3,1.4-4.2c0-1.9-0.6-3.2-1.4-2.8
	C161.7,215.8,161.1,217.7,161.1,219.6z"/>
<linearGradient id="SVGID_00000087411099469709905840000001864959736146975889_" gradientUnits="userSpaceOnUse" x1="397.013" y1="-461.5146" x2="400.173" y2="-454.4446" gradientTransform="matrix(1.213 -0.6387 0 -1.213 -320.56 -82.7519)">
	<stop  offset="0" style="stop-color:#888A85"/>
	<stop  offset="1" style="stop-color:#D3D7CF"/>
</linearGradient>
<path style="fill-rule:evenodd;clip-rule:evenodd;fill:url(#SVGID_00000087411099469709905840000001864959736146975889_);" d="
	M164.1,217.8c0,2-0.5,4-1.2,4.3c-0.7,0.4-1.2-1-1.2-3s0.5-4,1.2-4.3C163.5,214.4,164.1,215.8,164.1,217.8z"/>
<path class="st9" d="M163.9,217.4c0,1.1-0.3,2.2-0.7,2.4c-0.4,0.2-0.7-0.6-0.7-1.7c0-1.1,0.3-2.2,0.7-2.4
	C163.6,215.5,163.9,216.2,163.9,217.4z"/>
<path class="st7" d="M153.7,222.2c0,2,0.6,3.2,1.4,2.8c0.8-0.4,1.4-2.3,1.4-4.3s-0.6-3.2-1.4-2.8
	C154.3,218.3,153.7,220.3,153.7,222.2z"/>
<linearGradient id="SVGID_00000021799928992163553150000002436807757611192991_" gradientUnits="userSpaceOnUse" x1="398.576" y1="-463.8003" x2="401.7359" y2="-456.7303" gradientTransform="matrix(1.2377 -0.6518 0 -1.2377 -339.7545 -88.1652)">
	<stop  offset="0" style="stop-color:#888A85"/>
	<stop  offset="1" style="stop-color:#D3D7CF"/>
</linearGradient>
<path style="fill-rule:evenodd;clip-rule:evenodd;fill:url(#SVGID_00000021799928992163553150000002436807757611192991_);" d="
	M156.7,220.3c0,2.1-0.6,4-1.3,4.4c-0.7,0.4-1.3-1-1.3-3.1s0.6-4,1.3-4.4C156.1,216.8,156.7,218.2,156.7,220.3z"/>
<path class="st9" d="M156.5,219.9c0,1.2-0.3,2.3-0.7,2.5s-0.7-0.6-0.7-1.7s0.3-2.3,0.7-2.5S156.5,218.7,156.5,219.9z"/>
<path class="st7" d="M146,224.7c0,2,0.6,3.3,1.4,2.9c0.8-0.4,1.4-2.4,1.4-4.4c0-2-0.6-3.3-1.4-2.9C146.6,220.8,146,222.7,146,224.7z
	"/>
<linearGradient id="SVGID_00000084525743579359067900000011206337922052126137_" gradientUnits="userSpaceOnUse" x1="400.1135" y1="-466.0518" x2="403.2735" y2="-458.9818" gradientTransform="matrix(1.263 -0.6651 0 -1.263 -359.425 -93.7685)">
	<stop  offset="0" style="stop-color:#888A85"/>
	<stop  offset="1" style="stop-color:#D3D7CF"/>
</linearGradient>
<path style="fill-rule:evenodd;clip-rule:evenodd;fill:url(#SVGID_00000084525743579359067900000011206337922052126137_);" d="
	M149.1,222.8c0,2.1-0.6,4.1-1.3,4.5c-0.7,0.4-1.3-1-1.3-3.2s0.6-4.1,1.3-4.5C148.5,219.3,149.1,220.7,149.1,222.8z"/>
<path class="st9" d="M148.9,222.4c0,1.2-0.3,2.3-0.7,2.5c-0.4,0.2-0.7-0.6-0.7-1.8c0-1.2,0.3-2.3,0.7-2.5
	C148.6,220.4,148.9,221.2,148.9,222.4z"/>
<path class="st7" d="M168.3,217.7c0,1.9,0.6,3.1,1.3,2.7c0.7-0.4,1.3-2.2,1.3-4.1s-0.6-3.1-1.3-2.7S168.3,215.8,168.3,217.7z"/>
<linearGradient id="SVGID_00000031923194225175136240000003078961454353194657_" gradientUnits="userSpaceOnUse" x1="395.412" y1="-459.1706" x2="398.572" y2="-452.1006" gradientTransform="matrix(1.1887 -0.6259 0 -1.1887 -301.8085 -76.8351)">
	<stop  offset="0" style="stop-color:#888A85"/>
	<stop  offset="1" style="stop-color:#D3D7CF"/>
</linearGradient>
<path style="fill-rule:evenodd;clip-rule:evenodd;fill:url(#SVGID_00000031923194225175136240000003078961454353194657_);" d="
	M171.2,215.9c0,2-0.5,3.9-1.2,4.2c-0.7,0.3-1.2-1-1.2-3s0.5-3.9,1.2-4.2C170.7,212.6,171.2,213.9,171.2,215.9z"/>
<path class="st9" d="M171.1,215.5c0,1.1-0.3,2.2-0.7,2.4c-0.4,0.2-0.7-0.6-0.7-1.7c0-1.1,0.3-2.2,0.7-2.4
	C170.8,213.6,171.1,214.4,171.1,215.5z"/>
<path class="st7" d="M175.3,215.4c0,1.9,0.6,3.1,1.3,2.7c0.7-0.4,1.3-2.2,1.3-4.1s-0.6-3.1-1.3-2.7
	C175.9,211.8,175.3,213.6,175.3,215.4z"/>
<linearGradient id="SVGID_00000108994060628995377310000004290132293448658329_" gradientUnits="userSpaceOnUse" x1="393.7792" y1="-456.7795" x2="396.9391" y2="-449.7095" gradientTransform="matrix(1.1649 -0.6134 0 -1.1649 -283.5005 -71.4957)">
	<stop  offset="0" style="stop-color:#888A85"/>
	<stop  offset="1" style="stop-color:#D3D7CF"/>
</linearGradient>
<path style="fill-rule:evenodd;clip-rule:evenodd;fill:url(#SVGID_00000108994060628995377310000004290132293448658329_);" d="
	M178.1,213.6c0,1.9-0.5,3.8-1.2,4.1c-0.6,0.3-1.2-1-1.2-2.9s0.5-3.8,1.2-4.1C177.6,210.3,178.1,211.6,178.1,213.6z"/>
<path class="st9" d="M178,213.2c0,1.1-0.3,2.1-0.7,2.3c-0.4,0.2-0.7-0.5-0.7-1.6s0.3-2.1,0.7-2.3C177.7,211.4,178,212.1,178,213.2z"
	/>
<path class="st7" d="M182.1,213.8c0,1.8,0.6,3,1.3,2.6s1.3-2.2,1.3-4s-0.6-3-1.3-2.6S182.1,212,182.1,213.8z"/>
<linearGradient id="SVGID_00000022542806831053602060000013169341388811588771_" gradientUnits="userSpaceOnUse" x1="392.1147" y1="-454.3437" x2="395.2747" y2="-447.2737" gradientTransform="matrix(1.1416 -0.6012 0 -1.1416 -265.627 -65.5965)">
	<stop  offset="0" style="stop-color:#888A85"/>
	<stop  offset="1" style="stop-color:#D3D7CF"/>
</linearGradient>
<path style="fill-rule:evenodd;clip-rule:evenodd;fill:url(#SVGID_00000022542806831053602060000013169341388811588771_);" d="
	M184.9,212c0,1.9-0.5,3.7-1.2,4.1c-0.6,0.3-1.2-0.9-1.2-2.9c0-1.9,0.5-3.7,1.2-4.1C184.4,208.8,184.9,210.1,184.9,212z"/>
<path class="st9" d="M184.8,211.6c0,1.1-0.3,2.1-0.6,2.3c-0.4,0.2-0.6-0.5-0.6-1.6c0-1.1,0.3-2.1,0.6-2.3
	C184.5,209.9,184.8,210.6,184.8,211.6z"/>
<path class="st7" d="M188.7,211.8c0,1.8,0.6,2.9,1.3,2.6s1.3-2.1,1.3-3.9s-0.6-2.9-1.3-2.6S188.7,210,188.7,211.8z"/>
<linearGradient id="SVGID_00000085238837589847530610000001456805972469547150_" gradientUnits="userSpaceOnUse" x1="390.4188" y1="-451.8637" x2="393.5788" y2="-444.7937" gradientTransform="matrix(1.1188 -0.5891 0 -1.1188 -248.178 -60.2674)">
	<stop  offset="0" style="stop-color:#888A85"/>
	<stop  offset="1" style="stop-color:#D3D7CF"/>
</linearGradient>
<path style="fill-rule:evenodd;clip-rule:evenodd;fill:url(#SVGID_00000085238837589847530610000001456805972469547150_);" d="
	M191.4,210c0,1.9-0.5,3.7-1.1,4s-1.1-0.9-1.1-2.8s0.5-3.7,1.1-4S191.4,208.1,191.4,210z"/>
<path class="st9" d="M191.3,209.6c0,1.1-0.3,2.1-0.6,2.2c-0.4,0.2-0.6-0.5-0.6-1.6s0.3-2.1,0.6-2.2
	C191,207.9,191.3,208.6,191.3,209.6z"/>
<path class="st7" d="M195.1,209.8c0,1.7,0.6,2.9,1.2,2.5c0.7-0.4,1.2-2.1,1.2-3.8s-0.6-2.9-1.2-2.5S195.1,208,195.1,209.8z"/>
<linearGradient id="SVGID_00000013158313046863891450000007657387903533643659_" gradientUnits="userSpaceOnUse" x1="388.684" y1="-449.3238" x2="391.844" y2="-442.2538" gradientTransform="matrix(1.0964 -0.5774 0 -1.0964 -231.136 -55.035)">
	<stop  offset="0" style="stop-color:#888A85"/>
	<stop  offset="1" style="stop-color:#D3D7CF"/>
</linearGradient>
<path style="fill-rule:evenodd;clip-rule:evenodd;fill:url(#SVGID_00000013158313046863891450000007657387903533643659_);" d="
	M197.8,208c0,1.8-0.5,3.6-1.1,3.9c-0.6,0.3-1.1-0.9-1.1-2.7c0-1.8,0.5-3.6,1.1-3.9S197.8,206.2,197.8,208z"/>
<path class="st9" d="M197.6,207.7c0,1-0.3,2-0.6,2.2c-0.3,0.2-0.6-0.5-0.6-1.5s0.3-2,0.6-2.2C197.4,206,197.6,206.7,197.6,207.7z"/>
<path class="st7" d="M201.3,207.5c0,1.7,0.5,2.8,1.2,2.5s1.2-2,1.2-3.7s-0.5-2.8-1.2-2.5S201.3,205.8,201.3,207.5z"/>
<linearGradient id="SVGID_00000142884917692331366120000015291633465719665046_" gradientUnits="userSpaceOnUse" x1="386.918" y1="-446.7408" x2="390.078" y2="-439.6708" gradientTransform="matrix(1.0745 -0.5658 0 -1.0745 -214.5015 -50.1837)">
	<stop  offset="0" style="stop-color:#888A85"/>
	<stop  offset="1" style="stop-color:#D3D7CF"/>
</linearGradient>
<path style="fill-rule:evenodd;clip-rule:evenodd;fill:url(#SVGID_00000142884917692331366120000015291633465719665046_);" d="
	M203.9,205.9c0,1.8-0.5,3.5-1.1,3.8s-1.1-0.9-1.1-2.7s0.5-3.5,1.1-3.8S203.9,204.1,203.9,205.9z"/>
<path class="st9" d="M203.8,205.5c0,1-0.3,2-0.6,2.2c-0.3,0.2-0.6-0.5-0.6-1.5c0-1,0.3-2,0.6-2.2
	C203.5,203.8,203.8,204.5,203.8,205.5z"/>
<path class="st7" d="M138.1,227.5c0,2.1,0.6,3.4,1.4,3s1.4-2.4,1.4-4.5s-0.6-3.4-1.4-3C138.8,223.5,138.1,225.5,138.1,227.5z"/>
<linearGradient id="SVGID_00000155127209833510393130000010878727555206217403_" gradientUnits="userSpaceOnUse" x1="401.6135" y1="-468.2442" x2="404.7735" y2="-461.1742" gradientTransform="matrix(1.2887 -0.6786 0 -1.2887 -379.5465 -99.3656)">
	<stop  offset="0" style="stop-color:#888A85"/>
	<stop  offset="1" style="stop-color:#D3D7CF"/>
</linearGradient>
<path style="fill-rule:evenodd;clip-rule:evenodd;fill:url(#SVGID_00000155127209833510393130000010878727555206217403_);" d="
	M141.3,225.5c0,2.2-0.6,4.2-1.3,4.6c-0.7,0.4-1.3-1.1-1.3-3.2s0.6-4.2,1.3-4.6C140.7,221.9,141.3,223.3,141.3,225.5z"/>
<path class="st9" d="M141.1,225.1c0,1.2-0.3,2.4-0.7,2.6c-0.4,0.2-0.7-0.6-0.7-1.8c0-1.2,0.3-2.4,0.7-2.6
	C140.8,223.1,141.1,223.9,141.1,225.1z"/>
<path class="st7" d="M138.1,76.9c0,2.1,0.6,3.7,1.4,3.7s1.4-1.7,1.4-3.7c0-2.1-0.6-3.7-1.4-3.7S138.1,74.8,138.1,76.9z"/>
<linearGradient id="SVGID_00000078037373977749967120000016320520925979956910_" gradientUnits="userSpaceOnUse" x1="401.6135" y1="-507.064" x2="404.7735" y2="-499.994" gradientTransform="matrix(1.2887 0 0 -1.2887 -379.5465 -572.6755)">
	<stop  offset="0" style="stop-color:#888A85"/>
	<stop  offset="1" style="stop-color:#D3D7CF"/>
</linearGradient>
<path style="fill-rule:evenodd;clip-rule:evenodd;fill:url(#SVGID_00000078037373977749967120000016320520925979956910_);" d="
	M141.3,76.4c0,2.2-0.6,3.9-1.3,3.9s-1.3-1.7-1.3-3.9s0.6-3.9,1.3-3.9S141.3,74.3,141.3,76.4z"/>
<path class="st9" d="M141.1,76c0,1.2-0.3,2.2-0.7,2.2s-0.7-1-0.7-2.2c0-1.2,0.3-2.2,0.7-2.2S141.1,74.8,141.1,76z"/>
<path class="st7" d="M138.1,93.5c0,2.1,0.6,3.7,1.4,3.7s1.4-1.7,1.4-3.7c0-2.1-0.6-3.7-1.4-3.7S138.1,91.5,138.1,93.5z"/>
<linearGradient id="SVGID_00000074434389535194122910000008769257601365396361_" gradientUnits="userSpaceOnUse" x1="401.6135" y1="-507.064" x2="404.7735" y2="-499.994" gradientTransform="matrix(1.2887 0 0 -1.2887 -379.5465 -556.0255)">
	<stop  offset="0" style="stop-color:#888A85"/>
	<stop  offset="1" style="stop-color:#D3D7CF"/>
</linearGradient>
<path style="fill-rule:evenodd;clip-rule:evenodd;fill:url(#SVGID_00000074434389535194122910000008769257601365396361_);" d="
	M141.3,93.1c0,2.2-0.6,3.9-1.3,3.9s-1.3-1.7-1.3-3.9s0.6-3.9,1.3-3.9S141.3,90.9,141.3,93.1z"/>
<path class="st9" d="M141.1,92.6c0,1.2-0.3,2.2-0.7,2.2s-0.7-1-0.7-2.2c0-1.2,0.3-2.2,0.7-2.2S141.1,91.4,141.1,92.6z"/>
<path class="st7" d="M138.1,126.8c0,2.1,0.6,3.7,1.4,3.7s1.4-1.7,1.4-3.7c0-2.1-0.6-3.7-1.4-3.7S138.1,124.7,138.1,126.8z"/>
<linearGradient id="SVGID_00000165205826128110895590000012377120794975925898_" gradientUnits="userSpaceOnUse" x1="401.6135" y1="-507.064" x2="404.7735" y2="-499.994" gradientTransform="matrix(1.2887 0 0 -1.2887 -379.5465 -522.7355)">
	<stop  offset="0" style="stop-color:#888A85"/>
	<stop  offset="1" style="stop-color:#D3D7CF"/>
</linearGradient>
<path style="fill-rule:evenodd;clip-rule:evenodd;fill:url(#SVGID_00000165205826128110895590000012377120794975925898_);" d="
	M141.3,126.4c0,2.2-0.6,3.9-1.3,3.9s-1.3-1.7-1.3-3.9s0.6-3.9,1.3-3.9S141.3,124.2,141.3,126.4z"/>
<path class="st9" d="M141.1,125.9c0,1.2-0.3,2.2-0.7,2.2s-0.7-1-0.7-2.2c0-1.2,0.3-2.2,0.7-2.2S141.1,124.7,141.1,125.9z"/>
<path class="st7" d="M138.1,143.4c0,2.1,0.6,3.7,1.4,3.7s1.4-1.7,1.4-3.7c0-2.1-0.6-3.7-1.4-3.7S138.1,141.4,138.1,143.4z"/>
<linearGradient id="SVGID_00000163783971798157381270000011770662168522071961_" gradientUnits="userSpaceOnUse" x1="401.6135" y1="-507.064" x2="404.7735" y2="-499.994" gradientTransform="matrix(1.2887 0 0 -1.2887 -379.5465 -506.0855)">
	<stop  offset="0" style="stop-color:#888A85"/>
	<stop  offset="1" style="stop-color:#D3D7CF"/>
</linearGradient>
<path style="fill-rule:evenodd;clip-rule:evenodd;fill:url(#SVGID_00000163783971798157381270000011770662168522071961_);" d="
	M141.3,143c0,2.2-0.6,3.9-1.3,3.9s-1.3-1.7-1.3-3.9c0-2.2,0.6-3.9,1.3-3.9S141.3,140.9,141.3,143z"/>
<path class="st9" d="M141.1,142.5c0,1.2-0.3,2.2-0.7,2.2s-0.7-1-0.7-2.2s0.3-2.2,0.7-2.2S141.1,141.3,141.1,142.5z"/>
<path class="st7" d="M138.1,176.7c0,2.1,0.6,3.7,1.4,3.7s1.4-1.7,1.4-3.7c0-2.1-0.6-3.7-1.4-3.7S138.1,174.7,138.1,176.7z"/>
<linearGradient id="SVGID_00000163039671283057030550000008038995736431400349_" gradientUnits="userSpaceOnUse" x1="401.6135" y1="-507.064" x2="404.7735" y2="-499.994" gradientTransform="matrix(1.2887 0 0 -1.2887 -379.5465 -472.7955)">
	<stop  offset="0" style="stop-color:#888A85"/>
	<stop  offset="1" style="stop-color:#D3D7CF"/>
</linearGradient>
<path style="fill-rule:evenodd;clip-rule:evenodd;fill:url(#SVGID_00000163039671283057030550000008038995736431400349_);" d="
	M141.3,176.3c0,2.2-0.6,3.9-1.3,3.9s-1.3-1.7-1.3-3.9c0-2.2,0.6-3.9,1.3-3.9S141.3,174.2,141.3,176.3z"/>
<path class="st9" d="M141.1,175.8c0,1.2-0.3,2.2-0.7,2.2s-0.7-1-0.7-2.2s0.3-2.2,0.7-2.2S141.1,174.6,141.1,175.8z"/>
<path class="st7" d="M138.1,193.4c0,2.1,0.6,3.7,1.4,3.7s1.4-1.7,1.4-3.7c0-2.1-0.6-3.7-1.4-3.7S138.1,191.3,138.1,193.4z"/>
<linearGradient id="SVGID_00000086691464448213062960000005049285203188760197_" gradientUnits="userSpaceOnUse" x1="401.6135" y1="-507.064" x2="404.7735" y2="-499.994" gradientTransform="matrix(1.2887 0 0 -1.2887 -379.5465 -456.1455)">
	<stop  offset="0" style="stop-color:#888A85"/>
	<stop  offset="1" style="stop-color:#D3D7CF"/>
</linearGradient>
<path style="fill-rule:evenodd;clip-rule:evenodd;fill:url(#SVGID_00000086691464448213062960000005049285203188760197_);" d="
	M141.3,193c0,2.2-0.6,3.9-1.3,3.9s-1.3-1.7-1.3-3.9c0-2.2,0.6-3.9,1.3-3.9S141.3,190.8,141.3,193z"/>
<path class="st9" d="M141.1,192.5c0,1.2-0.3,2.2-0.7,2.2s-0.7-1-0.7-2.2s0.3-2.2,0.7-2.2S141.1,191.3,141.1,192.5z"/>
<path class="st7" d="M138.1,210c0,2.1,0.6,3.7,1.4,3.7s1.4-1.7,1.4-3.7c0-2.1-0.6-3.7-1.4-3.7S138.1,208,138.1,210z"/>
<linearGradient id="SVGID_00000123402988903412002090000012434437141231740331_" gradientUnits="userSpaceOnUse" x1="401.6135" y1="-507.064" x2="404.7735" y2="-499.994" gradientTransform="matrix(1.2887 0 0 -1.2887 -379.5465 -439.4985)">
	<stop  offset="0" style="stop-color:#888A85"/>
	<stop  offset="1" style="stop-color:#D3D7CF"/>
</linearGradient>
<path style="fill-rule:evenodd;clip-rule:evenodd;fill:url(#SVGID_00000123402988903412002090000012434437141231740331_);" d="
	M141.3,209.6c0,2.2-0.6,3.9-1.3,3.9s-1.3-1.7-1.3-3.9c0-2.2,0.6-3.9,1.3-3.9S141.3,207.4,141.3,209.6z"/>
<path class="st9" d="M141.1,209.1c0,1.2-0.3,2.2-0.7,2.2s-0.7-1-0.7-2.2s0.3-2.2,0.7-2.2S141.1,207.9,141.1,209.1z"/>
<path class="st7" d="M201.3,100.2c0,1.7,0.5,3.1,1.2,3.1s1.2-1.4,1.2-3.1c0-1.7-0.5-3.1-1.2-3.1S201.3,98.5,201.3,100.2z"/>
<linearGradient id="SVGID_00000020399001369787721440000002756395719319249543_" gradientUnits="userSpaceOnUse" x1="386.918" y1="-493.2966" x2="390.078" y2="-486.2266" gradientTransform="matrix(1.0745 0 0 -1.0745 -214.5015 -426.5577)">
	<stop  offset="0" style="stop-color:#888A85"/>
	<stop  offset="1" style="stop-color:#D3D7CF"/>
</linearGradient>
<path style="fill-rule:evenodd;clip-rule:evenodd;fill:url(#SVGID_00000020399001369787721440000002756395719319249543_);" d="
	M203.9,99.9c0,1.8-0.5,3.3-1.1,3.3s-1.1-1.5-1.1-3.3c0-1.8,0.5-3.3,1.1-3.3S203.9,98.1,203.9,99.9z"/>
<path class="st9" d="M203.8,99.4c0,1-0.3,1.8-0.6,1.8c-0.3,0-0.6-0.8-0.6-1.8s0.3-1.8,0.6-1.8C203.5,97.6,203.8,98.4,203.8,99.4z"/>
<path class="st7" d="M201.3,113.5c0,1.7,0.5,3.1,1.2,3.1s1.2-1.4,1.2-3.1c0-1.7-0.5-3.1-1.2-3.1S201.3,111.8,201.3,113.5z"/>
<linearGradient id="SVGID_00000072271918562807598900000006977622504418515330_" gradientUnits="userSpaceOnUse" x1="386.918" y1="-493.2966" x2="390.078" y2="-486.2266" gradientTransform="matrix(1.0745 0 0 -1.0745 -214.5015 -413.2237)">
	<stop  offset="0" style="stop-color:#888A85"/>
	<stop  offset="1" style="stop-color:#D3D7CF"/>
</linearGradient>
<path style="fill-rule:evenodd;clip-rule:evenodd;fill:url(#SVGID_00000072271918562807598900000006977622504418515330_);" d="
	M203.9,113.2c0,1.8-0.5,3.3-1.1,3.3s-1.1-1.5-1.1-3.3c0-1.8,0.5-3.3,1.1-3.3S203.9,111.4,203.9,113.2z"/>
<path class="st9" d="M203.8,112.8c0,1-0.3,1.8-0.6,1.8c-0.3,0-0.6-0.8-0.6-1.8s0.3-1.8,0.6-1.8C203.5,110.9,203.8,111.8,203.8,112.8
	z"/>
<path class="st7" d="M201.3,126.8c0,1.7,0.5,3.1,1.2,3.1s1.2-1.4,1.2-3.1s-0.5-3.1-1.2-3.1S201.3,125.1,201.3,126.8z"/>
<linearGradient id="SVGID_00000132065915317366468730000000537811479351262381_" gradientUnits="userSpaceOnUse" x1="386.918" y1="-493.2966" x2="390.078" y2="-486.2266" gradientTransform="matrix(1.0745 0 0 -1.0745 -214.5015 -399.8897)">
	<stop  offset="0" style="stop-color:#888A85"/>
	<stop  offset="1" style="stop-color:#D3D7CF"/>
</linearGradient>
<path style="fill-rule:evenodd;clip-rule:evenodd;fill:url(#SVGID_00000132065915317366468730000000537811479351262381_);" d="
	M203.9,126.5c0,1.8-0.5,3.3-1.1,3.3s-1.1-1.5-1.1-3.3c0-1.8,0.5-3.3,1.1-3.3S203.9,124.7,203.9,126.5z"/>
<path class="st9" d="M203.8,126.1c0,1-0.3,1.8-0.6,1.8c-0.3,0-0.6-0.8-0.6-1.8s0.3-1.8,0.6-1.8C203.5,124.3,203.8,125.1,203.8,126.1
	z"/>
<path class="st7" d="M201.3,140.2c0,1.7,0.5,3.1,1.2,3.1s1.2-1.4,1.2-3.1c0-1.7-0.5-3.1-1.2-3.1S201.3,138.5,201.3,140.2z"/>
<linearGradient id="SVGID_00000142898762044544887010000017481439922715111561_" gradientUnits="userSpaceOnUse" x1="386.918" y1="-493.2966" x2="390.078" y2="-486.2266" gradientTransform="matrix(1.0745 0 0 -1.0745 -214.5015 -386.5565)">
	<stop  offset="0" style="stop-color:#888A85"/>
	<stop  offset="1" style="stop-color:#D3D7CF"/>
</linearGradient>
<path style="fill-rule:evenodd;clip-rule:evenodd;fill:url(#SVGID_00000142898762044544887010000017481439922715111561_);" d="
	M203.9,139.9c0,1.8-0.5,3.3-1.1,3.3s-1.1-1.5-1.1-3.3s0.5-3.3,1.1-3.3S203.9,138.1,203.9,139.9z"/>
<path class="st9" d="M203.8,139.4c0,1-0.3,1.8-0.6,1.8c-0.3,0-0.6-0.8-0.6-1.8c0-1,0.3-1.8,0.6-1.8
	C203.5,137.6,203.8,138.4,203.8,139.4z"/>
<path class="st7" d="M201.3,153.5c0,1.7,0.5,3.1,1.2,3.1s1.2-1.4,1.2-3.1c0-1.7-0.5-3.1-1.2-3.1S201.3,151.8,201.3,153.5z"/>
<linearGradient id="SVGID_00000114035683016495446400000014507452159292482743_" gradientUnits="userSpaceOnUse" x1="386.918" y1="-493.2966" x2="390.078" y2="-486.2266" gradientTransform="matrix(1.0745 0 0 -1.0745 -214.5015 -373.2228)">
	<stop  offset="0" style="stop-color:#888A85"/>
	<stop  offset="1" style="stop-color:#D3D7CF"/>
</linearGradient>
<path style="fill-rule:evenodd;clip-rule:evenodd;fill:url(#SVGID_00000114035683016495446400000014507452159292482743_);" d="
	M203.9,153.2c0,1.8-0.5,3.3-1.1,3.3s-1.1-1.5-1.1-3.3s0.5-3.3,1.1-3.3S203.9,151.4,203.9,153.2z"/>
<path class="st9" d="M203.8,152.8c0,1-0.3,1.8-0.6,1.8c-0.3,0-0.6-0.8-0.6-1.8c0-1,0.3-1.8,0.6-1.8
	C203.5,150.9,203.8,151.8,203.8,152.8z"/>
<path class="st7" d="M201.3,166.8c0,1.7,0.5,3.1,1.2,3.1s1.2-1.4,1.2-3.1c0-1.7-0.5-3.1-1.2-3.1S201.3,165.1,201.3,166.8z"/>
<linearGradient id="SVGID_00000164489096110600933590000016799323667898068406_" gradientUnits="userSpaceOnUse" x1="386.918" y1="-493.2966" x2="390.078" y2="-486.2266" gradientTransform="matrix(1.0745 0 0 -1.0745 -214.5015 -359.8887)">
	<stop  offset="0" style="stop-color:#888A85"/>
	<stop  offset="1" style="stop-color:#D3D7CF"/>
</linearGradient>
<path style="fill-rule:evenodd;clip-rule:evenodd;fill:url(#SVGID_00000164489096110600933590000016799323667898068406_);" d="
	M203.9,166.5c0,1.8-0.5,3.3-1.1,3.3s-1.1-1.5-1.1-3.3s0.5-3.3,1.1-3.3S203.9,164.7,203.9,166.5z"/>
<path class="st9" d="M203.8,166.1c0,1-0.3,1.8-0.6,1.8c-0.3,0-0.6-0.8-0.6-1.8c0-1,0.3-1.8,0.6-1.8
	C203.5,164.3,203.8,165.1,203.8,166.1z"/>
<path class="st7" d="M201.3,180.2c0,1.7,0.5,3.1,1.2,3.1s1.2-1.4,1.2-3.1c0-1.7-0.5-3.1-1.2-3.1S201.3,178.5,201.3,180.2z"/>
<linearGradient id="SVGID_00000073689968650433187170000005655048685440650884_" gradientUnits="userSpaceOnUse" x1="386.918" y1="-493.2966" x2="390.078" y2="-486.2266" gradientTransform="matrix(1.0745 0 0 -1.0745 -214.5015 -346.5557)">
	<stop  offset="0" style="stop-color:#888A85"/>
	<stop  offset="1" style="stop-color:#D3D7CF"/>
</linearGradient>
<path style="fill-rule:evenodd;clip-rule:evenodd;fill:url(#SVGID_00000073689968650433187170000005655048685440650884_);" d="
	M203.9,179.9c0,1.8-0.5,3.3-1.1,3.3s-1.1-1.5-1.1-3.3s0.5-3.3,1.1-3.3S203.9,178.1,203.9,179.9z"/>
<path class="st9" d="M203.8,179.4c0,1-0.3,1.8-0.6,1.8c-0.3,0-0.6-0.8-0.6-1.8c0-1,0.3-1.8,0.6-1.8
	C203.5,177.6,203.8,178.4,203.8,179.4z"/>
<g transform="matrix(1.0169 0 0 .70742 -128.38 180.36)">
	<g class="st43">
		<ellipse class="st44" cx="296.4" cy="-61.8" rx="10.2" ry="21.1"/>
	</g>
	
		<linearGradient id="SVGID_00000152232069025115387620000013477021386638405292_" gradientUnits="userSpaceOnUse" x1="642.4133" y1="-1081.8535" x2="658.3234" y2="-1036.0436" gradientTransform="matrix(1.0169 0 0 -0.7074 -360.4633 -805.7326)">
		<stop  offset="0" style="stop-color:#8A8C87"/>
		<stop  offset="1" style="stop-color:#E8E8E6"/>
	</linearGradient>
	<path style="fill-rule:evenodd;clip-rule:evenodd;fill:url(#SVGID_00000152232069025115387620000013477021386638405292_);" d="
		M301.2-93.4c-5.3,0-9.6,13-9.6,28.9s4.3,28.9,9.6,28.9c5.1,0,9.3-12,9.6-27.1c-0.4,10.9-3.5,19.4-7.2,19.4c-4,0-7.2-9.7-7.2-21.7
		s3.2-21.7,7.2-21.7c3.5,0,6.3,7.3,7.1,17C309.8-83.2,305.9-93.4,301.2-93.4L301.2-93.4z"/>
	
		<linearGradient id="SVGID_00000119803971255314096690000001717919951107479426_" gradientUnits="userSpaceOnUse" x1="651.9449" y1="-1081.9485" x2="656.9449" y2="-1035.6985" gradientTransform="matrix(1.0169 0 0 -0.7074 -360.4633 -805.7326)">
		<stop  offset="0" style="stop-color:#1E1E1F"/>
		<stop  offset="0.6042" style="stop-color:#535354"/>
		<stop  offset="0.6641" style="stop-color:#D3D7CF"/>
		<stop  offset="0.7508" style="stop-color:#5A5A5B"/>
		<stop  offset="1" style="stop-color:#1A1A1C"/>
	</linearGradient>
	<path style="fill-rule:evenodd;clip-rule:evenodd;fill:url(#SVGID_00000119803971255314096690000001717919951107479426_);" d="
		M303.2-87.3c-4.1,0-7.5,10.1-7.5,22.5s3.4,22.5,7.5,22.5c5.8-3.2,9.3-8.2,10.8-14.7c-0.6-2.6-0.9-5.7-0.9-9.1c0-2.6,0.2-5,0.6-7.2
		C311.5-80.2,306.9-86.9,303.2-87.3L303.2-87.3z"/>
	<g transform="translate(-29.875 45.785)">
		<path class="st47" d="M344.9-111.1c0,9.1-2.5,16.5-5.5,16.5c-3,0-5.5-7.4-5.5-16.5s2.5-16.5,5.5-16.5
			C342.4-127.6,344.9-120.2,344.9-111.1z"/>
		<path class="st48" d="M339.5-125.3v3.8h0.3v-3.8H339.5z M337.4-123.6l-0.2,0.4l0.6,3.3l0.2-0.4L337.4-123.6z M341.8-123.6
			l-0.6,3.3l0.2,0.4l0.6-3.3L341.8-123.6z M335.6-118.6l-0.1,0.7l1.1,1.9l0.1-0.7L335.6-118.6z M343.6-118.6l-1.1,1.9l0.1,0.7
			l1.1-1.9L343.6-118.6z M343.1-111.7v0.9h1.3l0-0.8L343.1-111.7L343.1-111.7z M334.9-111.6l0,0.8l1.3,0v-0.9L334.9-111.6
			L334.9-111.6z M336.5-106.4l-1.1,1.9l0.1,0.7l1.1-1.9L336.5-106.4z M342.7-106.4l-0.1,0.7l1.1,1.9l0.1-0.7L342.7-106.4z
			 M337.8-102.5l-0.6,3.3l0.2,0.4l0.6-3.3L337.8-102.5z M341.4-102.5l-0.2,0.4l0.6,3.3l0.2-0.4L341.4-102.5z M339.5-100.9v3.8h0.3
			v-3.8H339.5z"/>
	</g>
	
		<linearGradient id="SVGID_00000045607576557294237100000002259389822395386249_" gradientUnits="userSpaceOnUse" x1="661.2269" y1="-1028.0414" x2="659.4568" y2="-1035.1213" gradientTransform="matrix(1.0169 0 0 -0.7074 -360.4633 -805.7326)">
		<stop  offset="0" style="stop-color:#E8E8E6"/>
		<stop  offset="1" style="stop-color:#E8E8E6;stop-opacity:0"/>
	</linearGradient>
	<path style="fill-rule:evenodd;clip-rule:evenodd;fill:url(#SVGID_00000045607576557294237100000002259389822395386249_);" d="
		M310.3-80.4c-1.3-0.2-2.7,1-3.9,3c2.7,2.7,5.5,6.4,7.9,10.7C314.5-74.2,313-80,310.3-80.4z M303.5-48c0.4,0.9,1,1.6,1.6,2
		C304.6-46.6,304.1-47.3,303.5-48z"/>
	
		<linearGradient id="SVGID_00000167365707572600317760000000496906295217683616_" gradientUnits="userSpaceOnUse" x1="644.5043" y1="-1092.8472" x2="645.9243" y2="-1046.4972" gradientTransform="matrix(1.0169 0 0 -0.7074 -360.4633 -805.7326)">
		<stop  offset="0" style="stop-color:#555556"/>
		<stop  offset="1" style="stop-color:#E8E8E6"/>
	</linearGradient>
	<path style="fill-rule:evenodd;clip-rule:evenodd;fill:url(#SVGID_00000167365707572600317760000000496906295217683616_);" d="
		M299.6-93.3c-5.3,0-9.7,13-9.7,28.9s4.3,28.9,9.7,28.9c0.5,0,1-0.1,1.4-0.3c-4.9-1.5-8.6-13.8-8.6-28.8c0-14.5,3.6-26.5,8.2-28.6
		C300.3-93.2,299.9-93.3,299.6-93.3L299.6-93.3z"/>
</g>
<g class="st51">
	<polygon class="st52" points="191.3,79.6 188.9,82.8 188.9,90.5 214.6,92.3 216.8,82.3 	"/>
</g>
<g transform="translate(2,-2)">
	<path class="st53" d="M189.5,80.6L189.4,92l27.4,1.8l0.2-10L189.5,80.6z"/>
	
		<linearGradient id="SVGID_00000060732726135886786320000005396989272819650703_" gradientUnits="userSpaceOnUse" x1="422.2938" y1="-479.9082" x2="424.5938" y2="-469.8282" gradientTransform="matrix(1 0 0 -1 -232.4 -389.4807)">
		<stop  offset="0" style="stop-color:#989A94"/>
		<stop  offset="1" style="stop-color:#989A94;stop-opacity:0"/>
	</linearGradient>
	<path style="fill:url(#SVGID_00000060732726135886786320000005396989272819650703_);" d="M189.5,80.6L189.4,92l2.9-0.5V81.2
		L189.5,80.6z"/>
	<path class="st55" d="M189.3,91.9l27.4,1.9l0-0.3l-24.3-2.1L189.3,91.9z"/>
	<path class="st56" d="M192.9,83l23.6,1.9l0-0.8l-23.2-2.4L192.9,83z"/>
</g>
<g class="st57">
	<polygon class="st52" points="218.5,186.8 192,191.3 191,193.2 190.9,204.1 214.7,197.9 214.8,196.1 218.5,186.8 	"/>
</g>
<g transform="matrix(1 -.32496 0 1 2.5 248.2)">
	<path class="st53" d="M189.5,4.4l-0.1,11.5l27.4,1.8l0.2-10L189.5,4.4z"/>
	
		<linearGradient id="SVGID_00000180353991800155297770000010352589219443943357_" gradientUnits="userSpaceOnUse" x1="421.7938" y1="-562.1709" x2="424.0938" y2="-552.0909" gradientTransform="matrix(1 0.325 0 -1 -231.9 -684.98)">
		<stop  offset="0" style="stop-color:#989A94"/>
		<stop  offset="1" style="stop-color:#989A94;stop-opacity:0"/>
	</linearGradient>
	<path style="fill:url(#SVGID_00000180353991800155297770000010352589219443943357_);" d="M189.5,4.4l-0.1,11.5l2.9-0.5V5L189.5,4.4
		z"/>
	<path class="st55" d="M189.3,15.7l27.4,1.9l0-0.3l-24.3-2.1L189.3,15.7z"/>
	<path class="st56" d="M192.9,6.9l23.6,1.9l0-0.8l-23.2-2.4L192.9,6.9z"/>
</g>
<g class="st59">
	<path class="st60" d="M140.9,103.1L140.9,103.1c1.2-0.2,2.1,2.3,2.1,5.8s-0.9,6.7-2.1,7.4v0l-0.1,0l-4.1,1.7
		c-1.8,0.7-3.1,3.1-3.1,5.7v26c0,2.6,1.3,3.9,3.1,3.1l4.2-1.7v0.1c0,0,0,0,0.1-0.1c1.2-0.5,2.2,2.1,2.2,5.7s-1,7-2.2,7.5l-0.1,0
		l-4.2,1.7c-6.9,2.8-12.6-2.8-12.6-12.5v-26c0-9.7,5.7-20,12.6-22.8L140.9,103.1L140.9,103.1z"/>
</g>
<g transform="matrix(.72442 0 0 .72442 -67.156 160.32)">
	
		<linearGradient id="SVGID_00000165927054456578388670000001339552724805134251_" gradientUnits="userSpaceOnUse" x1="902.0728" y1="-963.2504" x2="893.6927" y2="-1064.5204" gradientTransform="matrix(0.7244 0 0 -0.7244 -354.5858 -766.9327)">
		<stop  offset="0" style="stop-color:#D1D2CE"/>
		<stop  offset="1" style="stop-color:#A0A29D"/>
	</linearGradient>
	<path style="fill:url(#SVGID_00000165927054456578388670000001339552724805134251_);" d="M286.7-78.8v0.1c-1.6,0.2-2.9,4.2-2.9,9.1
		s1.3,8.8,2.9,9v0c0.1,0,0.1,0,0.2,0h5.6c2.5,0,4.3,2.6,4.3,6.1v35.9c0,3.5-1.8,6.1-4.3,6.1h-5.8v0.1c0,0-0.1,0-0.1,0
		c-1.7,0-3,4.1-3,9.1s1.4,9.1,3,9.1h5.8c9.5,0,17.4-11,17.4-24.3v-35.9c0-13.3-7.9-24.3-17.4-24.3L286.7-78.8L286.7-78.8z"/>
	
		<linearGradient id="SVGID_00000132081233452009379890000000370543721147444114_" gradientUnits="userSpaceOnUse" x1="898.7715" y1="-956.9542" x2="900.5915" y2="-1036.9541" gradientTransform="matrix(0.7244 0 0 -0.7244 -354.5858 -766.9327)">
		<stop  offset="0" style="stop-color:#EEEEEC"/>
		<stop  offset="1" style="stop-color:#888A85"/>
	</linearGradient>
	<path style="opacity:0.6;fill:url(#SVGID_00000132081233452009379890000000370543721147444114_);enable-background:new    ;" d="
		M286.7-78.7v0.1c-0.5,0.1-1,0.5-1.4,1.2h2.4c9.5,0,17.4,11,17.4,24.3V-17c0,10.5-4.9,19.5-11.6,22.9c9-0.8,16.4-11.5,16.4-24.3
		v-35.9c0-13.3-7.9-24.3-17.4-24.3H286.7z M286.7-12.3v0.1C286.6-12.2,286.6-12.2,286.7-12.3c-0.7,0.1-1.2,0.6-1.6,1.4h2.6
		c1.1,0,2.1-0.5,2.8-1.4H286.7L286.7-12.3z"/>
	<g class="st63">
		<path class="st48" d="M286-77.2c-0.3,0.2-0.5,0.5-0.7,0.9h2.4c9.5,0,17.5,11,17.5,24.3V-16c0,10.5-4.9,19.5-11.6,22.9
			c1.1-0.1,2.2-0.3,3.2-0.7c5.7-4.2,9.6-12.5,9.6-22v-36.7c0-13.6-8.1-24.8-17.8-24.8L286-77.2C286-77.2,286-77.3,286-77.2L286-77.2
			z"/>
	</g>
</g>
<path class="st0" d="M122.5,31.2l-0.5-0.4l-0.5,0.5l1.2,115.2L122.5,31.2L122.5,31.2z"/>
<path class="st48" d="M133.1,50.6l-0.2-0.4l-0.2,0.5l0.5,115.2l0.3-115.3L133.1,50.6z"/>
<linearGradient id="SVGID_00000183950659265367268490000003770183660942771382_" gradientUnits="userSpaceOnUse" x1="303.9878" y1="-430.1829" x2="327.6778" y2="-453.8729" gradientTransform="matrix(1 0 0 -1 -234.4 -391.4807)">
	<stop  offset="0" style="stop-color:#424243"/>
	<stop  offset="1" style="stop-color:#424243;stop-opacity:0"/>
</linearGradient>
<path style="opacity:0.3837;fill:url(#SVGID_00000183950659265367268490000003770183660942771382_);enable-background:new    ;" d="
	M70.7,63.4l51.7-32.7l-51.7,69.8V63.4z"/>
</svg>
